# xmcd
#
# Track frame offsets:
#	150
#	18902
#	41901
#	54959
#	79577
#	92976
#	114850
#	128056
#	154063
#	170923
#	196463
#	210449
#
# Disc length: 3119 seconds
#
# Revision: 0
# Processed by: cddbd v1.5.1PL2 Copyright (c) Steve Scherf et al.
# Submitted via: dBpowerAMP V4.0
#
DISCID=980c2d0c
DTITLE=Gary Gold - Why
DYEAR=2004
DGENRE=Blues
TTITLE0=Intro
TTITLE1=Why
TTITLE2=Emanuel
TTITLE3=Interstate
TTITLE4=Hyper Nagila
TTITLE5=Breaking News
TTITLE6=Liora
TTITLE7=Mama
TTITLE8=In Fusion
TTITLE9=Too little and too late
TTITLE10=whatsoever, it revolves
TTITLE11=Feeling
EXTD=Igor Zolotaryov aka Gary Gold passed away in February 2006\nBe his memory blessed.
EXTT0=
EXTT1=
EXTT2=
EXTT3=
EXTT4=
EXTT5=
EXTT6=
EXTT7=
EXTT8=
EXTT9=
EXTT10=
EXTT11=
PLAYORDER=
